<?xml version="1.0" encoding="UTF-8"?>
<!DOCTYPE svg PUBLIC "-//W3C//DTD SVG 1.1//EN" "http://www.w3.org/Graphics/SVG/1.1/DTD/svg11.dtd">
<!-- Creator: CorelDRAW 2018 (64-Bit Evaluation Version) -->
<svg xmlns="http://www.w3.org/2000/svg" xml:space="preserve" width="111.075mm" height="44.4976mm" version="1.1" style="shape-rendering:geometricPrecision; text-rendering:geometricPrecision; image-rendering:optimizeQuality; fill-rule:evenodd; clip-rule:evenodd"
viewBox="0 0 11005.94 4409.08"
 xmlns:xlink="http://www.w3.org/1999/xlink">
 <defs>
  <style type="text/css">
   <![CDATA[
    .fil2 {fill:#525053}
    .fil3 {fill:#00AFF0}
    .fil1 {fill:#525053;fill-rule:nonzero}
    .fil0 {fill:#00AFF0;fill-rule:nonzero}
   ]]>
  </style>
 </defs>
 <g id="Layer_x0020_1">
  <metadata id="CorelCorpID_0Corel-Layer"/>
  <g id="_2710906127248">
   <path class="fil0" d="M-0 2446.73l180.75 -17.95c10.9,60.47 32.69,104.69 65.81,133.11 33.11,28.42 77.77,42.52 133.96,42.52 59.39,0 104.26,-12.6 134.39,-37.82 30.12,-25.21 45.29,-54.7 45.29,-88.45 0,-21.79 -6.41,-40.17 -19.01,-55.55 -12.6,-15.17 -34.83,-28.42 -66.45,-39.53 -21.58,-7.69 -70.72,-20.94 -147.64,-40.17 -98.93,-24.78 -168.37,-55.12 -208.32,-91.23 -56.19,-50.64 -84.18,-112.38 -84.18,-185.24 0,-46.8 13.25,-90.81 39.53,-131.62 26.5,-40.81 64.52,-71.79 114.32,-93.15 49.78,-21.37 109.6,-32.05 180.11,-32.05 114.73,0 201.26,25.43 259.17,76.49 58.11,51.06 88.45,119 91.45,204.26l-185.89 6.41c-7.91,-47.43 -24.78,-81.41 -50.63,-102.13 -25.85,-20.73 -64.74,-31.2 -116.45,-31.2 -53.42,0 -95.29,11.12 -125.41,33.33 -19.45,14.32 -29.28,33.33 -29.28,57.26 0,21.79 9.2,40.38 27.57,55.77 23.29,19.87 79.91,40.38 169.85,61.75 89.95,21.14 156.4,43.37 199.35,66.02 43.15,22.86 76.91,53.83 101.27,93.36 24.37,39.54 36.54,88.25 36.54,146.14 0,52.57 -14.54,101.92 -43.81,147.86 -29.27,45.94 -70.51,80.12 -123.92,102.35 -53.42,22.43 -120.08,33.54 -199.77,33.54 -116.02,0 -205.12,-26.7 -267.29,-80.34 -62.17,-53.41 -99.14,-131.4 -111.31,-233.73z"/>
   <path id="1" class="fil0" d="M865.31 2290.76c0,-93.59 14.1,-172.21 42.09,-235.88 20.73,-46.79 49.35,-88.88 85.46,-126.06 36.11,-37.18 75.63,-64.73 118.59,-82.9 57.25,-24.15 123.27,-36.32 198.05,-36.32 135.46,0 243.57,42.09 324.97,126.06 81.19,84.18 121.79,201.06 121.79,350.82 0,148.5 -40.38,264.73 -120.92,348.48 -80.56,83.98 -188.45,125.85 -323.27,125.85 -136.53,0 -245.28,-41.67 -325.82,-125.2 -80.55,-83.32 -120.93,-198.27 -120.93,-344.84zm191.01 -6.2c0,104.05 24.15,182.89 72.22,236.74 48.07,53.63 109.17,80.55 183.1,80.55 74.14,0 134.82,-26.7 182.47,-79.9 47.43,-53.42 71.14,-133.33 71.14,-239.94 0,-105.34 -23.08,-183.96 -69.44,-235.67 -46.14,-51.92 -107.47,-77.77 -184.17,-77.77 -76.49,0 -138.23,26.28 -185.02,78.62 -46.8,52.56 -70.3,131.62 -70.3,237.37z"/>
   <polygon id="2" class="fil0" points="1900.91,2744.13 1900.91,1826.26 2531.62,1826.26 2531.62,1981.38 2086.79,1981.38 2086.79,2199.31 2471.37,2199.31 2471.37,2354.42 2086.79,2354.42 2086.79,2744.13 "/>
   <polygon id="3" class="fil0" points="2890.36,2744.13 2890.36,1981.38 2618.58,1981.38 2618.58,1826.26 3346.73,1826.26 3346.73,1981.38 3076.24,1981.38 3076.24,2744.13 "/>
   <polygon id="4" class="fil0" points="3673.41,2744.13 3673.41,1981.38 3401.64,1981.38 3401.64,1826.26 4129.78,1826.26 4129.78,1981.38 3859.3,1981.38 3859.3,2744.13 "/>
   <polygon id="5" class="fil0" points="4250.08,2744.13 4250.08,1826.26 4929.5,1826.26 4929.5,1981.38 4435.96,1981.38 4435.96,2185.21 4894.89,2185.21 4894.89,2340.32 4435.96,2340.32 4435.96,2589.02 4947.46,2589.02 4947.46,2744.13 "/>
   <path id="6" class="fil0" d="M5692.26 2405.7l179.47 55.13c-27.57,101.06 -73.5,176.05 -137.59,225.19 -64.1,48.93 -145.29,73.5 -243.79,73.5 -121.99,0 -222.2,-41.67 -300.82,-125 -78.42,-83.32 -117.72,-197.2 -117.72,-341.85 0,-152.77 39.53,-271.56 118.37,-356.17 78.83,-84.6 182.67,-126.91 311.3,-126.91 112.38,0 203.61,33.33 273.7,99.78 41.87,39.32 73.07,95.72 94,169.43l-183.32 43.59c-10.89,-47.43 -33.54,-85.04 -67.94,-112.59 -34.61,-27.57 -76.48,-41.24 -125.63,-41.24 -68.15,0 -123.49,24.36 -165.79,73.28 -42.52,48.71 -63.67,127.77 -63.67,237.16 0,115.8 20.94,198.49 62.6,247.63 41.87,49.35 96.14,73.93 163.02,73.93 49.35,0 91.87,-15.6 127.35,-47.01 35.46,-31.41 61.11,-80.55 76.48,-147.86z"/>
   <polygon id="7" class="fil0" points="6030.91,2744.13 6030.91,1826.26 6216.79,1826.26 6216.79,2187.77 6578.3,2187.77 6578.3,1826.26 6764.18,1826.26 6764.18,2744.13 6578.3,2744.13 6578.3,2342.89 6216.79,2342.89 6216.79,2744.13 "/>
   <path id="8" class="fil1" d="M6918.23 2290.76c0,-93.59 14.1,-172.21 42.09,-235.88 20.73,-46.79 49.35,-88.88 85.46,-126.06 36.11,-37.18 75.63,-64.73 118.59,-82.9 57.25,-24.15 123.27,-36.32 198.05,-36.32 135.46,0 243.57,42.09 324.97,126.06 81.19,84.18 121.79,201.06 121.79,350.82 0,148.5 -40.38,264.73 -120.92,348.48 -80.56,83.98 -188.45,125.85 -323.27,125.85 -136.53,0 -245.28,-41.67 -325.82,-125.2 -80.55,-83.32 -120.93,-198.27 -120.93,-344.84zm191.01 -6.2c0,104.05 24.15,182.89 72.22,236.74 48.07,53.63 109.17,80.55 183.1,80.55 74.14,0 134.82,-26.7 182.47,-79.9 47.43,-53.42 71.14,-133.33 71.14,-239.94 0,-105.34 -23.08,-183.96 -69.44,-235.67 -46.14,-51.92 -107.47,-77.77 -184.17,-77.77 -76.49,0 -138.23,26.28 -185.02,78.62 -46.8,52.56 -70.3,131.62 -70.3,237.37z"/>
   <polygon id="9" class="fil1" points="8188.64,2744.13 7860.25,1826.26 8061.08,1826.26 8294.18,2505.69 8517.88,1826.26 8715.3,1826.26 8388.83,2744.13 "/>
   <polygon id="10" class="fil1" points="8808.89,2744.13 8808.89,1826.26 9488.31,1826.26 9488.31,1981.38 8994.76,1981.38 8994.76,2185.21 9453.7,2185.21 9453.7,2340.32 8994.76,2340.32 8994.76,2589.02 9506.26,2589.02 9506.26,2744.13 "/>
   <path id="11" class="fil1" d="M9663.94 2744.13l0 -917.87 390.35 0c98.07,0 169.43,8.33 213.87,24.78 44.66,16.46 80.12,45.73 106.83,87.82 26.7,42.3 40.16,90.38 40.16,144.65 0,69.01 -20.07,125.84 -60.46,170.71 -40.38,44.88 -100.63,73.08 -180.97,84.83 39.96,23.29 72.86,48.93 98.71,76.91 26.07,27.99 61.11,77.77 105.12,149.13l111.96 179.05 -221.56 0 -132.89 -200.41c-47.65,-71.14 -80.34,-116.02 -98.08,-134.61 -17.52,-18.37 -36.11,-31.19 -55.77,-38.03 -19.87,-6.84 -51.06,-10.26 -93.79,-10.26l-37.6 0 0 383.3 -185.88 0zm185.88 -529.45l137.17 0c88.88,0 144.21,-3.84 166.43,-11.33 22.01,-7.47 39.53,-20.51 51.92,-38.88 12.6,-18.37 18.8,-41.45 18.8,-69.01 0,-30.97 -8.33,-55.77 -24.78,-74.99 -16.45,-19.01 -39.74,-30.98 -69.66,-35.9 -15.16,-2.14 -60.24,-3.2 -135.24,-3.2l-144.65 0 0 233.31z"/>
   <path class="fil2" d="M10170.22 3659.89c-921.89,293.84 -2114.73,-44.18 -3052.46,-486.88 31.42,51.01 430.54,323.16 499.15,369.1 816.85,546.92 2221.12,1162.68 3042.09,709.79 297.18,-163.94 380.14,-491.36 335.77,-846.09 -14.87,-118.92 -115.15,-438.99 -169.92,-515.89 -2.08,24.97 -2.86,33.7 -7.22,60.42 -57.52,352.62 -336.1,610.32 -647.4,709.54z"/>
   <path class="fil3" d="M6801.5 749.2c921.89,-293.84 2114.73,44.18 3052.46,486.88 -31.42,-51.01 -430.54,-323.16 -499.15,-369.1 -816.85,-546.92 -2221.12,-1162.69 -3042.09,-709.79 -297.18,163.94 -380.14,491.36 -335.77,846.09 14.87,118.92 115.15,438.99 169.93,515.89 2.07,-24.98 2.86,-33.7 7.21,-60.42 57.52,-352.63 336.1,-610.32 647.4,-709.54z"/>
  </g>
 </g>
</svg>
