<?xml version="1.0"?>
<svg xmlns="http://www.w3.org/2000/svg" id="outline" viewBox="0 0 512 512" width="512" height="512"><circle cx="144" cy="456" r="8"/><circle cx="392" cy="456" r="8"/><path d="M216,280a7.99923,7.99923,0,0,0-6.50977,3.3501L171.8833,336H40a8.00008,8.00008,0,0,0-8,8v72H24a8.00008,8.00008,0,0,0-8,8v48a8.00008,8.00008,0,0,0,8,8H72a8.00008,8.00008,0,0,0,8-8v-8h24.80493a40.004,40.004,0,0,0,78.39014,0H352.80493a40.004,40.004,0,0,0,78.39014,0H488a8.00008,8.00008,0,0,0,8-8V384a8.00008,8.00008,0,0,0-8-8H464a40.04552,40.04552,0,0,0-40-40H371.31348l-53.65625-53.65674A8.00076,8.00076,0,0,0,312,280M48,384H60.90039l-2.666,8H48Zm16,80H32V432H44l20,26.6665Zm80,16a24,24,0,1,1,24-24A24.0275,24.0275,0,0,1,144,480Zm88-32H183.19507a40.004,40.004,0,0,0-78.39014,0H76.00024L54.40039,419.2002A8.00229,8.00229,0,0,0,48,416v-8H64a8.00071,8.00071,0,0,0,7.58984-5.47021l8-24A8,8,0,0,0,72,368H48V352H232Zm0-112H191.54541l28.57178-40H232Zm16-40h60.68652L348.686,336H248ZM392,480a24,24,0,1,1,24-24A24.0275,24.0275,0,0,1,392,480Zm56-32H431.19507a40.004,40.004,0,0,0-78.39014,0H248V352H424a23.943,23.943,0,0,1,17.86914,8H424a8,8,0,0,0-7.58984,10.52979l8,24A8.00071,8.00071,0,0,0,432,400h16Zm0-64H437.76562l-2.666-8H448Zm32,64H464V392h16Z"/><rect x="272" y="368" width="24" height="16"/><path d="M72.84473,244.42236A7.99583,7.99583,0,0,0,72,248v72H88V288h72v32h16V248a7.99583,7.99583,0,0,0-.84473-3.57764L152,198.11182V176h8.06543a36.71226,36.71226,0,0,0,20.35645,31.15527l7.15624-14.31054A20.809,20.809,0,0,1,176.09351,176H192a8.00008,8.00008,0,0,0,8-8V144a7.99967,7.99967,0,0,0-4.42188-7.15527l-32-16A7.99934,7.99934,0,0,0,160,120H80a8.00008,8.00008,0,0,0-8,8v40a8.00008,8.00008,0,0,0,8,8H96v22.11182ZM168,140.94434l16,8V160H168ZM88,160V136h64v24Zm48,16v16H112V176Zm-27.05566,32h30.11132L160,249.88867V272H88V249.88867Z"/><path d="M462.18652,18.92822A8.0001,8.0001,0,0,0,456,16H120a8.00053,8.00053,0,0,0-7.84473,9.56885l16,80,15.68946-3.1377L139.35864,80H256.03345a30.40747,30.40747,0,0,0,8.93628,20.28418L404.64893,239.9624l-15.69385,78.46875,15.68945,3.1377,13.60181-68.009,9.46948,9.46949a30.6276,30.6276,0,0,0,43.31445-43.31348l-38.3457-38.34558L463.84473,25.56885A8.00084,8.00084,0,0,0,462.18652,18.92822Zm-2.4707,212.10108a14.62724,14.62724,0,1,1-20.68555,20.68652L276.28418,88.9707a14.62724,14.62724,0,1,1,20.68555-20.68652Zm-40.62891-63.25659L331.31348,80H436.64136ZM439.84131,64H315.31348l-7.0293-7.0293A30.62064,30.62064,0,0,0,259.72534,64H136.15869l-6.3999-32H446.24121Z"/></svg>
